<svg width="128" height="14" viewBox="0 0 128 14" fill="none" xmlns="http://www.w3.org/2000/svg">
<path d="M1.98525 11V3.3H4.68025C5.28159 3.3 5.78025 3.40267 6.17625 3.608C6.57225 3.806 6.86559 4.081 7.05625 4.433C7.25425 4.77767 7.35325 5.17 7.35325 5.61C7.35325 6.028 7.25792 6.413 7.06725 6.765C6.88392 7.10967 6.59425 7.38467 6.19825 7.59C5.80225 7.79533 5.29625 7.898 4.68025 7.898H3.15125V11H1.98525ZM3.15125 6.941H4.62525C5.17525 6.941 5.56759 6.82367 5.80225 6.589C6.04425 6.347 6.16525 6.02067 6.16525 5.61C6.16525 5.18467 6.04425 4.85467 5.80225 4.62C5.56759 4.378 5.17525 4.257 4.62525 4.257H3.15125V6.941ZM10.713 11.132C10.1923 11.132 9.72298 11.0147 9.30498 10.78C8.89431 10.538 8.56798 10.2043 8.32598 9.779C8.08398 9.34633 7.96298 8.844 7.96298 8.272C7.96298 7.7 8.08398 7.20133 8.32598 6.776C8.57531 6.34333 8.90898 6.00967 9.32698 5.775C9.74498 5.533 10.2106 5.412 10.724 5.412C11.2446 5.412 11.7103 5.533 12.121 5.775C12.539 6.00967 12.869 6.34333 13.111 6.776C13.3603 7.20133 13.485 7.7 13.485 8.272C13.485 8.844 13.3603 9.34633 13.111 9.779C12.869 10.2043 12.539 10.538 12.121 10.78C11.703 11.0147 11.2336 11.132 10.713 11.132ZM10.713 10.131C10.9916 10.131 11.2483 10.0613 11.483 9.922C11.725 9.78267 11.9193 9.57733 12.066 9.306C12.2126 9.02733 12.286 8.68267 12.286 8.272C12.286 7.86133 12.2126 7.52033 12.066 7.249C11.9266 6.97033 11.736 6.76133 11.494 6.622C11.2593 6.48267 11.0026 6.413 10.724 6.413C10.4453 6.413 10.185 6.48267 9.94298 6.622C9.70831 6.76133 9.51765 6.97033 9.37098 7.249C9.22431 7.52033 9.15098 7.86133 9.15098 8.272C9.15098 8.68267 9.22431 9.02733 9.37098 9.306C9.51765 9.57733 9.70831 9.78267 9.94298 9.922C10.1776 10.0613 10.4343 10.131 10.713 10.131ZM15.6308 11L14.0248 5.544H15.1908L16.2468 9.658L17.4348 5.544H18.7328L19.9208 9.658L20.9768 5.544H22.1428L20.5368 11H19.3378L18.0838 6.71L16.8298 11H15.6308ZM25.4513 11.132C24.9159 11.132 24.4393 11.0147 24.0213 10.78C23.6106 10.538 23.2879 10.2043 23.0533 9.779C22.8186 9.35367 22.7013 8.85867 22.7013 8.294C22.7013 7.722 22.8149 7.21967 23.0423 6.787C23.2769 6.35433 23.5996 6.017 24.0103 5.775C24.4283 5.533 24.9123 5.412 25.4623 5.412C25.9976 5.412 26.4633 5.533 26.8593 5.775C27.2553 6.00967 27.5633 6.325 27.7833 6.721C28.0033 7.117 28.1133 7.55333 28.1133 8.03C28.1133 8.10333 28.1096 8.184 28.1023 8.272C28.1023 8.35267 28.0986 8.44433 28.0913 8.547H23.8453C23.8819 9.075 24.0543 9.47833 24.3623 9.757C24.6776 10.0283 25.0406 10.164 25.4513 10.164C25.7813 10.164 26.0563 10.0907 26.2763 9.944C26.5036 9.79 26.6723 9.58467 26.7823 9.328H27.9483C27.8016 9.84133 27.5083 10.2703 27.0683 10.615C26.6356 10.9597 26.0966 11.132 25.4513 11.132ZM25.4513 6.369C25.0626 6.369 24.7179 6.48633 24.4173 6.721C24.1166 6.94833 23.9333 7.293 23.8673 7.755H26.9473C26.9253 7.32967 26.7749 6.99233 26.4963 6.743C26.2176 6.49367 25.8693 6.369 25.4513 6.369ZM29.3231 11V5.544H30.3681L30.4671 6.578C30.6578 6.21867 30.9218 5.93633 31.2591 5.731C31.6038 5.51833 32.0181 5.412 32.5021 5.412V6.633H32.1831C31.8604 6.633 31.5708 6.688 31.3141 6.798C31.0648 6.90067 30.8631 7.08033 30.7091 7.337C30.5624 7.58633 30.4891 7.93467 30.4891 8.382V11H29.3231ZM35.9034 11.132C35.3681 11.132 34.8914 11.0147 34.4734 10.78C34.0627 10.538 33.7401 10.2043 33.5054 9.779C33.2707 9.35367 33.1534 8.85867 33.1534 8.294C33.1534 7.722 33.2671 7.21967 33.4944 6.787C33.7291 6.35433 34.0517 6.017 34.4624 5.775C34.8804 5.533 35.3644 5.412 35.9144 5.412C36.4497 5.412 36.9154 5.533 37.3114 5.775C37.7074 6.00967 38.0154 6.325 38.2354 6.721C38.4554 7.117 38.5654 7.55333 38.5654 8.03C38.5654 8.10333 38.5617 8.184 38.5544 8.272C38.5544 8.35267 38.5507 8.44433 38.5434 8.547H34.2974C34.3341 9.075 34.5064 9.47833 34.8144 9.757C35.1297 10.0283 35.4927 10.164 35.9034 10.164C36.2334 10.164 36.5084 10.0907 36.7284 9.944C36.9557 9.79 37.1244 9.58467 37.2344 9.328H38.4004C38.2537 9.84133 37.9604 10.2703 37.5204 10.615C37.0877 10.9597 36.5487 11.132 35.9034 11.132ZM35.9034 6.369C35.5147 6.369 35.1701 6.48633 34.8694 6.721C34.5687 6.94833 34.3854 7.293 34.3194 7.755H37.3994C37.3774 7.32967 37.2271 6.99233 36.9484 6.743C36.6697 6.49367 36.3214 6.369 35.9034 6.369ZM42.2612 11.132C41.7332 11.132 41.2676 11.0073 40.8642 10.758C40.4609 10.5087 40.1456 10.1677 39.9182 9.735C39.6909 9.30233 39.5772 8.811 39.5772 8.261C39.5772 7.711 39.6909 7.22333 39.9182 6.798C40.1456 6.36533 40.4609 6.028 40.8642 5.786C41.2749 5.53667 41.7442 5.412 42.2722 5.412C42.7049 5.412 43.0826 5.49633 43.4052 5.665C43.7352 5.83367 43.9919 6.072 44.1752 6.38V3.08H45.3412V11H44.2962L44.1752 10.153C43.9992 10.4097 43.7572 10.637 43.4492 10.835C43.1412 11.033 42.7452 11.132 42.2612 11.132ZM42.4702 10.12C42.9689 10.12 43.3759 9.94767 43.6912 9.603C44.0139 9.25833 44.1752 8.81467 44.1752 8.272C44.1752 7.722 44.0139 7.27833 43.6912 6.941C43.3759 6.59633 42.9689 6.424 42.4702 6.424C41.9716 6.424 41.5609 6.59633 41.2382 6.941C40.9156 7.27833 40.7542 7.722 40.7542 8.272C40.7542 8.63133 40.8276 8.95033 40.9742 9.229C41.1209 9.50767 41.3226 9.72767 41.5792 9.889C41.8432 10.043 42.1402 10.12 42.4702 10.12ZM52.6519 11.132C52.2265 11.132 51.8489 11.0477 51.5189 10.879C51.1962 10.7103 50.9395 10.472 50.7489 10.164L50.6279 11H49.5829V3.08H50.7489V6.391C50.9249 6.13433 51.1669 5.907 51.4749 5.709C51.7829 5.511 52.1789 5.412 52.6629 5.412C53.1909 5.412 53.6565 5.53667 54.0599 5.786C54.4632 6.03533 54.7785 6.37633 55.0059 6.809C55.2405 7.24167 55.3579 7.733 55.3579 8.283C55.3579 8.833 55.2405 9.32433 55.0059 9.757C54.7785 10.1823 54.4632 10.5197 54.0599 10.769C53.6565 11.011 53.1872 11.132 52.6519 11.132ZM52.4539 10.12C52.9525 10.12 53.3632 9.95133 53.6859 9.614C54.0085 9.26933 54.1699 8.822 54.1699 8.272C54.1699 7.91267 54.0965 7.59367 53.9499 7.315C53.8032 7.03633 53.6015 6.82 53.3449 6.666C53.0882 6.50467 52.7912 6.424 52.4539 6.424C51.9552 6.424 51.5445 6.59633 51.2219 6.941C50.9065 7.28567 50.7489 7.72933 50.7489 8.272C50.7489 8.822 50.9065 9.26933 51.2219 9.614C51.5445 9.95133 51.9552 10.12 52.4539 10.12ZM56.7951 13.42L58.1041 10.549H57.7851L55.6291 5.544H56.8941L58.5661 9.581L60.3151 5.544H61.5471L58.0271 13.42H56.7951Z" fill="#363A46" fill-opacity="0.65"/>
<g clip-path="url(#clip0_141_15575)">
<path d="M73.1627 2.71107C72.9417 2.91701 72.7246 3.11913 72.5074 3.3203C71.4987 4.25656 70.49 5.19378 69.4804 6.12813C69.249 6.34265 69.0089 6.54859 68.7184 6.67444C68.3727 6.82413 68.1746 6.73069 68.0631 6.3579C67.9079 5.83638 67.9908 5.35014 68.2908 4.90203C68.546 4.52066 68.868 4.20317 69.1985 3.89426C69.7252 3.4023 70.2557 2.9151 70.7929 2.43648C71.0282 2.22673 71.2854 2.03509 71.5997 1.97121C72.5407 1.78148 73.1408 2.68342 73.1636 2.71011L73.1627 2.71107Z" fill="#4779FF"/>
<path d="M68.6346 7.47436C69.2071 7.30942 69.6366 6.94617 70.0548 6.56384C71.3882 5.34728 72.7198 4.12976 74.059 2.91986C74.3542 2.65291 74.6647 2.39739 74.9933 2.17429C75.4115 1.89017 75.8658 1.84917 76.3135 2.11994C76.4754 2.21719 76.6345 2.33065 76.7659 2.46603C77.2221 2.93798 77.6727 3.41755 78.1117 3.9057C78.5785 4.42436 79.0376 4.95065 79.4843 5.48648C79.6376 5.67049 79.7633 5.88501 79.8672 6.10239C80.0605 6.50664 80.011 6.90612 79.7757 7.28272C79.5652 7.62024 79.2833 7.89673 78.9928 8.15892C77.8555 9.18671 76.7183 10.2145 75.5677 11.228C75.2591 11.5007 74.9191 11.7447 74.5685 11.9602C73.9085 12.3673 73.2465 12.3168 72.6445 11.8344C72.294 11.5541 71.9645 11.2404 71.6635 10.9067C70.6939 9.83217 69.7424 8.74241 68.7842 7.65742C68.7356 7.60307 68.6918 7.54396 68.6346 7.47341V7.47436Z" fill="#4779FF"/>
</g>
<path d="M88.464 2.02608H89.9212V9.92659H88.464V9.26069C88.0349 9.81032 87.4244 10.0842 86.6344 10.0842C85.8443 10.0842 85.2242 9.79591 84.6857 9.22033C84.1472 8.64475 83.8784 7.93945 83.8784 7.10443C83.8784 6.26941 84.1472 5.56411 84.6857 4.98853C85.2242 4.41295 85.8731 4.12468 86.6344 4.12468C87.3956 4.12468 88.0349 4.3995 88.464 4.94817V2.02512V2.02608ZM85.781 8.25078C86.0786 8.5477 86.4529 8.69664 86.9051 8.69664C87.3572 8.69664 87.7297 8.5477 88.0234 8.25078C88.3172 7.95387 88.464 7.57143 88.464 7.10539C88.464 6.63936 88.3172 6.25692 88.0234 5.96C87.7297 5.66308 87.3572 5.51414 86.9051 5.51414C86.4529 5.51414 86.0786 5.66308 85.781 5.96C85.4834 6.25692 85.3346 6.63936 85.3346 7.10539C85.3346 7.57143 85.4834 7.95387 85.781 8.25078Z" fill="#252731"/>
<path d="M94.791 4.28323H96.35L94.2909 9.93621C93.9971 10.7424 93.6084 11.3276 93.1226 11.6927C92.6379 12.0579 92.0341 12.2222 91.3122 12.1838V10.8298C91.7038 10.8375 92.0139 10.7549 92.2443 10.5819C92.4737 10.409 92.6571 10.1303 92.7924 9.74691L90.477 4.28419H92.0696L93.5421 8.07687L94.792 4.28419L94.791 4.28323Z" fill="#252731"/>
<path d="M100.053 4.12468C100.671 4.12468 101.181 4.33127 101.584 4.74542C101.987 5.15957 102.187 5.7313 102.187 6.46062V9.92563H100.73V6.64127C100.73 6.26556 100.628 5.97729 100.425 5.77743C100.221 5.57852 99.9507 5.47859 99.6119 5.47859C99.2356 5.47859 98.9341 5.59486 98.7085 5.82835C98.483 6.06185 98.3697 6.41162 98.3697 6.87766V9.92467H96.9125V4.28131H98.3697V4.91358C98.7239 4.387 99.2845 4.12372 100.052 4.12372L100.053 4.12468Z" fill="#252731"/>
<path d="M107.492 4.28321H108.949V9.92658H107.492V9.26067C107.055 9.81031 106.442 10.0842 105.651 10.0842C104.86 10.0842 104.252 9.79589 103.714 9.22031C103.175 8.64474 102.906 7.93944 102.906 7.10441C102.906 6.26939 103.175 5.56409 103.714 4.98851C104.252 4.41293 104.897 4.12466 105.651 4.12466C106.442 4.12466 107.055 4.39948 107.492 4.94816V4.28225V4.28321ZM104.803 8.25077C105.097 8.54769 105.469 8.69662 105.922 8.69662C106.374 8.69662 106.748 8.54769 107.046 8.25077C107.343 7.95385 107.492 7.57141 107.492 7.10538C107.492 6.63934 107.343 6.2569 107.046 5.95998C106.748 5.66307 106.374 5.51413 105.922 5.51413C105.469 5.51413 105.097 5.66307 104.803 5.95998C104.509 6.2569 104.363 6.63934 104.363 7.10538C104.363 7.57141 104.509 7.95385 104.803 8.25077Z" fill="#252731"/>
<path d="M116.117 4.12466C116.765 4.12466 117.283 4.3351 117.67 4.75694C118.058 5.17877 118.252 5.74282 118.252 6.45004V9.92658H116.795V6.5519C116.795 6.21366 116.712 5.95037 116.546 5.76204C116.38 5.5737 116.147 5.47953 115.845 5.47953C115.514 5.47953 115.256 5.58908 115.072 5.8072C114.887 6.02532 114.795 6.34146 114.795 6.75561V9.92754H113.338V6.55286C113.338 6.21462 113.256 5.95133 113.089 5.763C112.923 5.57466 112.69 5.48049 112.389 5.48049C112.065 5.48049 111.807 5.59004 111.615 5.80816C111.423 6.02628 111.327 6.34242 111.327 6.75657V9.9285H109.87V4.28514H111.327V4.88378C111.666 4.3793 112.189 4.12755 112.897 4.12755C113.606 4.12755 114.102 4.39852 114.433 4.94047C114.81 4.39852 115.371 4.12755 116.116 4.12755L116.117 4.12466Z" fill="#252731"/>
<path d="M119.899 3.60578C119.658 3.60578 119.449 3.51738 119.272 3.34057C119.096 3.16377 119.007 2.95525 119.007 2.71407C119.007 2.47288 119.095 2.26244 119.272 2.0818C119.449 1.90115 119.658 1.81082 119.899 1.81082C120.14 1.81082 120.36 1.90115 120.538 2.0818C120.714 2.26244 120.803 2.47288 120.803 2.71407C120.803 2.95525 120.714 3.16377 120.538 3.34057C120.361 3.51738 120.148 3.60578 119.899 3.60578ZM119.176 9.92658V4.28322H120.634V9.92658H119.176Z" fill="#252731"/>
<path d="M124.33 10.0842C123.479 10.0842 122.77 9.79878 122.201 9.22608C121.633 8.65434 121.349 7.94712 121.349 7.10441C121.349 6.26171 121.633 5.55448 122.201 4.98275C122.77 4.41101 123.48 4.12466 124.33 4.12466C124.88 4.12466 125.381 4.25631 125.833 4.51959C126.285 4.78288 126.628 5.13649 126.861 5.58043L125.607 6.31359C125.494 6.08009 125.323 5.8956 125.094 5.76012C124.864 5.62463 124.606 5.55737 124.32 5.55737C123.883 5.55737 123.521 5.70246 123.235 5.99169C122.949 6.28188 122.806 6.65183 122.806 7.10345C122.806 7.55508 122.949 7.91445 123.235 8.20368C123.521 8.49387 123.883 8.63801 124.32 8.63801C124.614 8.63801 124.875 8.57267 125.105 8.44006C125.335 8.30842 125.506 8.12585 125.619 7.89235L126.884 8.61495C126.635 9.05888 126.285 9.41442 125.834 9.68155C125.382 9.94868 124.881 10.0822 124.331 10.0822L124.33 10.0842Z" fill="#252731"/>
<defs>
<clipPath id="clip0_141_15575">
<rect width="12" height="12" fill="white" transform="translate(67.9865 1)"/>
</clipPath>
</defs>
</svg>
